<svg width="18" height="18" viewBox="0 0 18 18" fill="none" xmlns="http://www.w3.org/2000/svg">
<g clip-path="url(#clip0_10_1928)">
<path d="M8.55635 9.44753L8.20285 9.80113C7.22099 8.81953 6.71998 7.98021 6.53104 7.21054C6.33948 6.43014 6.486 5.78853 6.65758 5.25728C6.69537 5.14025 6.7354 5.02569 6.7727 4.91891C6.77696 4.90672 6.78118 4.89464 6.78536 4.88267C6.82702 4.76326 6.86484 4.6536 6.89783 4.54638C6.96389 4.33167 7.00328 4.14892 7.0077 3.97518C7.0156 3.66518 6.91549 3.28618 6.38655 2.75739L6.74005 2.40378L6.38654 2.75739C6.09304 2.46396 5.82929 2.18637 5.59052 1.93507L5.5865 1.93083C5.34465 1.67628 5.13168 1.45228 4.93201 1.25707C4.52332 0.857489 4.22601 0.636626 3.9559 0.546807C3.7228 0.469294 3.45672 0.472605 3.05604 0.677573C2.63663 0.892122 2.1044 1.31161 1.38486 2.02976C1.34998 2.06948 1.31014 2.10832 1.28399 2.1338C1.28146 2.13627 1.27906 2.1386 1.2768 2.14081L1.27281 2.14471C1.23295 2.18364 1.19131 2.22432 1.14545 2.27258C1.05203 2.37092 0.944643 2.49736 0.844458 2.6597C0.64827 2.9776 0.462561 3.46008 0.506518 4.17973C0.596269 5.64913 1.65026 8.17752 5.73892 12.2651C9.82709 16.3521 12.3551 17.4047 13.824 17.4936C14.5433 17.5371 15.0256 17.3512 15.3433 17.1548C15.5056 17.0545 15.632 16.947 15.7303 16.8535C15.7785 16.8077 15.819 16.7662 15.8579 16.7263L15.8621 16.722C15.8643 16.7198 15.8666 16.7174 15.869 16.7149C15.8945 16.6887 15.9334 16.6488 15.9733 16.6138C16.6895 15.8963 17.1081 15.3651 17.3224 14.9461C17.5271 14.5458 17.5308 14.2791 17.4534 14.0452C17.3638 13.7746 17.1434 13.4766 16.7446 13.0676C16.5497 12.8678 16.326 12.6546 16.0717 12.4128L16.0577 12.3995C15.8092 12.1631 15.5351 11.9024 15.2456 11.613L8.55635 9.44753ZM8.55635 9.44753L8.20285 9.80114C9.18471 10.7827 10.0241 11.2835 10.7938 11.472M8.55635 9.44753L10.7938 11.472M10.7938 11.472C11.5742 11.6632 12.2156 11.5162 12.7466 11.3442M10.7938 11.472L12.7466 11.3442M12.7466 11.3442C12.8637 11.3062 12.9784 11.2661 13.0852 11.2286M12.7466 11.3442L13.0852 11.2286M13.0852 11.2286C13.0972 11.2244 13.1092 11.2202 13.1211 11.2161M13.0852 11.2286L13.1211 11.2161M13.1211 11.2161C13.2404 11.1743 13.3501 11.1364 13.4572 11.1033M13.1211 11.2161L13.4572 11.1033M13.4572 11.1033C13.6718 11.037 13.8545 10.9975 14.0281 10.9929M13.4572 11.1033L14.0281 10.9929M14.0281 10.9929C14.3379 10.9847 14.7167 11.0844 15.2455 11.6129L14.0281 10.9929Z" stroke="white" stroke-linecap="round" stroke-linejoin="round"/>
</g>
<defs>
<clipPath id="clip0_10_1928">
<rect width="18" height="18" fill="white"/>
</clipPath>
</defs>
</svg>
